<svg width="39" height="41" viewBox="0 0 39 41" fill="none" xmlns="http://www.w3.org/2000/svg">
<path d="M35.1 36.9C35.1 39.1755 33.3645 41 31.2 41C29.0355 41 27.3 39.155 27.3 36.9C27.3 34.6245 29.0355 32.8 31.2 32.8C33.3645 32.8 35.1 34.645 35.1 36.9ZM11.7 32.8C9.5355 32.8 7.8 34.6245 7.8 36.9C7.8 39.155 9.5355 41 11.7 41C13.8645 41 15.6 39.1755 15.6 36.9C15.6 34.6245 13.8645 32.8 11.7 32.8ZM12.09 25.8915L12.0315 26.1375C12.0315 26.4245 12.246 26.65 12.519 26.65H35.1V30.75H11.7C9.5355 30.75 7.8 28.905 7.8 26.65C7.8 25.9325 7.9755 25.256 8.268 24.682L10.92 19.6595L3.9 4.1H0V0H6.3765L8.2095 4.1H37.05C38.1225 4.1 39 5.0225 39 6.15C39 6.4985 38.9025 6.847 38.766 7.175L31.785 20.4385C31.122 21.689 29.835 22.55 28.3725 22.55H13.845L12.09 25.8915ZM14.625 18.45H17.55V14.35H12.792L14.625 18.45ZM19.5 14.35V18.45H25.35V14.35H19.5ZM25.35 12.3V8.2H19.5V12.3H25.35ZM31.4145 14.35H27.3V18.45H29.25L31.4145 14.35ZM34.671 8.2H27.3V12.3H32.5065L34.671 8.2ZM10.023 8.2L11.856 12.3H17.55V8.2H10.023Z" fill="black"/>
</svg>
