<svg width="13" height="17" viewBox="0 0 13 17" fill="none" xmlns="http://www.w3.org/2000/svg">
<path d="M12.0788 4.23064C12.0183 4.00385 11.8954 3.7622 11.8045 3.55062C10.7167 0.936398 8.33993 -0.000488281 6.42078 -0.000488281C3.85165 -0.000488281 1.02206 1.72222 0.644287 5.27313V5.9986C0.644287 6.02888 0.654722 6.30085 0.669543 6.43689C0.881315 8.12917 2.21665 9.92769 3.21393 11.62C4.28686 13.4331 5.40018 15.2166 6.50319 16.9995C7.18332 15.836 7.86101 14.6573 8.52565 13.524C8.70679 13.1914 8.91706 12.859 9.0984 12.5415C9.21926 12.3301 9.45017 12.1188 9.55566 11.9221C10.6285 9.95776 12.3555 7.97826 12.3555 6.02884V5.228C12.3555 5.01666 12.0936 4.27621 12.0788 4.23064ZM6.46781 7.8725C5.71262 7.8725 4.88601 7.49488 4.478 6.45203C4.41721 6.28603 4.42211 5.95335 4.42211 5.92288V5.45443C4.42211 4.12499 5.55093 3.52042 6.53295 3.52042C7.74192 3.52042 8.67695 4.48767 8.67695 5.69664C8.67695 6.90557 7.67678 7.8725 6.46781 7.8725Z" fill="#2E363E"/>
</svg>
