<svg width="15" height="12" viewBox="0 0 15 12" fill="none" xmlns="http://www.w3.org/2000/svg">
<path d="M15 9.37445C15 9.70329 14.9075 10.0081 14.7593 10.2763L10.0232 4.97732L14.708 0.878562C14.8902 1.16777 15 1.50748 15 1.87459V9.37445ZM7.50002 5.93946L14.0187 0.235759C13.7512 0.089318 13.45 -0.000488281 13.125 -0.000488281H1.87499C1.54965 -0.000488281 1.24832 0.089318 0.981903 0.235759L7.50002 5.93946ZM9.31738 5.5944L7.80848 6.91549C7.72022 6.99238 7.61032 7.03077 7.50002 7.03077C7.38965 7.03077 7.27975 6.99238 7.19149 6.91549L5.68225 5.59434L0.886223 10.9611C1.1737 11.1415 1.5106 11.2495 1.87496 11.2495H13.125C13.4893 11.2495 13.8264 11.1415 14.1138 10.9611L9.31738 5.5944ZM0.292079 0.878531C0.10987 1.16774 0 1.50745 0 1.87459V9.37449C0 9.70332 0.092063 10.0082 0.240792 10.2764L4.97635 4.97642L0.292079 0.878531Z" fill="#2E363E"/>
</svg>
