<svg width="16" height="16" viewBox="0 0 16 16" fill="none" xmlns="http://www.w3.org/2000/svg">
<path d="M12.1641 10.5831C11.6414 10.0671 10.9888 10.0671 10.4694 10.5831C10.0732 10.976 9.67699 11.3689 9.28744 11.7684C9.1809 11.8783 9.091 11.9016 8.96115 11.8283C8.70479 11.6885 8.43177 11.5753 8.18539 11.4221C7.03673 10.6997 6.07452 9.77074 5.22218 8.7253C4.79934 8.2059 4.42312 7.64988 4.16009 7.02395C4.10682 6.89743 4.11681 6.81419 4.22002 6.71098C4.61622 6.32809 5.00244 5.93521 5.39198 5.54234C5.93469 4.99631 5.93469 4.35706 5.38866 3.8077C5.07902 3.49473 4.76938 3.18842 4.45974 2.87545C4.14011 2.55582 3.82381 2.23287 3.50086 1.91657C2.97813 1.40716 2.32556 1.40716 1.80617 1.9199C1.40663 2.31277 1.02375 2.71564 0.617555 3.10185C0.241327 3.4581 0.0515486 3.89426 0.0115952 4.40367C-0.0516643 5.2327 0.151432 6.01512 0.437765 6.77757C1.02375 8.35573 1.91604 9.75742 2.99811 11.0426C4.45974 12.7806 6.20437 14.1556 8.24532 15.1478C9.16425 15.594 10.1165 15.9369 11.1519 15.9935C11.8644 16.0334 12.4837 15.8536 12.9798 15.2976C13.3194 14.9181 13.7023 14.5718 14.0619 14.2089C14.5946 13.6695 14.5979 13.017 14.0685 12.4842C13.4359 11.8483 12.8 11.2157 12.1641 10.5831Z" fill="#2E363E"/>
<path d="M11.5284 7.93055L12.7569 7.72079C12.5638 6.59211 12.0311 5.56997 11.2221 4.75758C10.3664 3.90192 9.28431 3.36254 8.09237 3.19607L7.91924 4.4313C8.84149 4.56115 9.68052 4.97733 10.3431 5.63989C10.969 6.26582 11.3785 7.05823 11.5284 7.93055Z" fill="#2E363E"/>
<path d="M13.4494 2.58982C12.031 1.17148 10.2364 0.275856 8.25542 -0.000488281L8.08229 1.23474C9.79363 1.47446 11.3452 2.25022 12.5704 3.47213C13.7324 4.6341 14.4948 6.10239 14.7712 7.71718L15.9997 7.50742C15.6768 5.63627 14.7945 3.93825 13.4494 2.58982Z" fill="#2E363E"/>
</svg>
